<?xml version="1.0" encoding="UTF-8"?>
<svg version="1.1" xmlns="http://www.w3.org/2000/svg" width="345" height="365">
<path d="M0 0 C-0.47907618 22.5165806 -4.30409328 43.53086358 -14 64 C-17.90113344 63.44395609 -19.62841647 61.67002252 -22.375 58.9375 C-38.68337853 43.85224986 -60.63601927 37.03261391 -82.5859375 37.72265625 C-100.86520124 38.67908321 -117.61082657 45.99065386 -131.87890625 57.27734375 C-134.36065952 59.85659502 -134.36065952 59.85659502 -133.859375 63.27734375 C-127.38560101 84.63623893 -116.80271361 101.33617199 -96.953125 112.45703125 C-93.04539487 114.49876855 -89.08378958 116.33967141 -85 118 C-85.33 118.99 -85.66 119.98 -86 121 C-88.64566785 122.30916515 -91.18447351 123.40376387 -93.9375 124.4375 C-94.73784668 124.74316895 -95.53819336 125.04883789 -96.36279297 125.36376953 C-111.8452294 131.06877979 -127.31727551 133.17783834 -143.75 133.125 C-144.96816406 133.12886719 -146.18632812 133.13273438 -147.44140625 133.13671875 C-148.61058594 133.13542969 -149.77976562 133.13414062 -150.984375 133.1328125 C-152.04366211 133.13168457 -153.10294922 133.13055664 -154.19433594 133.12939453 C-156.63662342 133.01675858 -158.67076186 132.70521431 -161 132 C-156.63902591 151.19803121 -150.03259816 166.72915739 -136 181 C-135.31292969 181.69996094 -134.62585938 182.39992187 -133.91796875 183.12109375 C-122.24226704 194.23358906 -105.9343654 201.86896025 -90 204 C-89.02804688 204.1340625 -88.05609375 204.268125 -87.0546875 204.40625 C-65.40068249 206.74722351 -43.73742734 200.27153477 -26.5625 187 C-25.36499489 186.01200315 -24.17286828 185.01712155 -23 184 C-25.32421479 164.43496804 -34.73627614 148.73048744 -49.5 135.875 C-56.2553564 130.62083391 -64.20359861 127.40075049 -72 124 C-71 121 -71 121 -68.1484375 119.53515625 C-66.89637022 119.02979666 -65.63799056 118.5399051 -64.375 118.0625 C-63.3698938 117.67336426 -63.3698938 117.67336426 -62.34448242 117.27636719 C-46.42154551 111.27388671 -30.50327232 108.57290525 -13.5 108.625 C-12.79823639 108.62587616 -12.09647278 108.62675232 -11.3734436 108.62765503 C15.85849792 108.73938652 43.59684005 116.52803269 65 134 C62.28566368 161.17907812 53.26353718 187.53043739 36 209 C35.59555664 209.50982422 35.19111328 210.01964844 34.77441406 210.54492188 C15.66740107 234.4969788 -10.29434959 252.04829688 -40 260 C-40.75313477 260.20882813 -41.50626953 260.41765625 -42.28222656 260.6328125 C-63.81850529 266.36372962 -90.40019583 266.69639615 -112 261 C-113.32417385 260.69121365 -114.64839408 260.38262612 -115.97265625 260.07421875 C-150.84208365 251.38888442 -181.63448039 227.67339115 -200.38085938 197.27612305 C-219.69851423 164.9052747 -227.11979598 124.93696895 -218 88 C-217.83371094 87.30729004 -217.66742188 86.61458008 -217.49609375 85.90087891 C-211.71323677 62.52849862 -200.3219046 41.63886968 -184 24 C-183.47954102 23.43039551 -182.95908203 22.86079102 -182.42285156 22.27392578 C-161.58940218 -0.29668211 -134.82816812 -13.6691235 -105 -20 C-103.94296875 -20.226875 -102.8859375 -20.45375 -101.796875 -20.6875 C-67.31158559 -26.80311783 -29.22633811 -19.38631473 0 0 Z " fill="#1983B0" transform="translate(253,60)"/>
<path d="M0 0 C-0.47907618 22.5165806 -4.30409328 43.53086358 -14 64 C-17.90113344 63.44395609 -19.62841647 61.67002252 -22.375 58.9375 C-38.68337853 43.85224986 -60.63601927 37.03261391 -82.5859375 37.72265625 C-100.86520124 38.67908321 -117.61082657 45.99065386 -131.87890625 57.27734375 C-134.36065952 59.85659502 -134.36065952 59.85659502 -133.859375 63.27734375 C-127.38560101 84.63623893 -116.80271361 101.33617199 -96.953125 112.45703125 C-93.04539487 114.49876855 -89.08378958 116.33967141 -85 118 C-86 121 -86 121 -89.296875 122.71875 C-90.77347872 123.33157107 -92.25867319 123.92393356 -93.75 124.5 C-94.54116211 124.80824707 -95.33232422 125.11649414 -96.14746094 125.43408203 C-104.84405365 128.61448252 -113.70240502 129.77303864 -122.86865234 130.74951172 C-124.56561213 130.94894823 -126.25169726 131.24032587 -127.9296875 131.5625 C-132.57425717 132.22432163 -137.18982449 132.14688079 -141.875 132.125 C-143.39734253 132.12101196 -143.39734253 132.12101196 -144.95043945 132.11694336 C-167.30295993 131.97753789 -167.30295993 131.97753789 -174 130 C-174 129.34 -174 128.68 -174 128 C-174.80566406 127.89816406 -175.61132812 127.79632813 -176.44140625 127.69140625 C-180.79275368 126.84597431 -184.7862365 125.47082311 -188.9375 123.9375 C-189.76781738 123.63094482 -190.59813477 123.32438965 -191.45361328 123.00854492 C-200.70426141 119.49195257 -211.97825107 115.16666307 -219 108 C-219.33984375 105.29296875 -219.33984375 105.29296875 -218.9375 102.1875 C-218.793125 101.02605469 -218.64875 99.86460937 -218.5 98.66796875 C-218.2525 96.85232422 -218.2525 96.85232422 -218 95 C-217.9175 93.86175781 -217.835 92.72351563 -217.75 91.55078125 C-215.37606425 64.57693634 -199.11127552 40.16425666 -181 21 C-180.20335937 20.12730469 -179.40671875 19.25460938 -178.5859375 18.35546875 C-159.02095404 -2.30302587 -132.49663129 -14.1639803 -105 -20 C-103.94296875 -20.226875 -102.8859375 -20.45375 -101.796875 -20.6875 C-67.31158559 -26.80311783 -29.22633811 -19.38631473 0 0 Z " fill="#8CA730" transform="translate(253,60)"/>
<path d="M0 0 C0.70176361 0.00087616 1.40352722 0.00175232 2.1265564 0.00265503 C29.35849792 0.11438652 57.09684005 7.90303269 78.5 25.375 C75.78566368 52.55407812 66.76353718 78.90543739 49.5 100.375 C49.09555664 100.88482422 48.69111328 101.39464844 48.27441406 101.91992188 C29.16740107 125.8719788 3.20565041 143.42329688 -26.5 151.375 C-27.25313477 151.58382812 -28.00626953 151.79265625 -28.78222656 152.0078125 C-50.35534292 157.74853231 -76.85368185 158.00438305 -98.5 152.375 C-98.5 152.045 -98.5 151.715 -98.5 151.375 C-97.74082275 151.39594727 -96.98164551 151.41689453 -96.19946289 151.43847656 C-72.30561669 152.00974503 -51.42262355 151.14012426 -32.8125 134.625 C-30.60090857 132.50126108 -28.46320926 130.33613183 -26.35546875 128.109375 C-24.5 126.375 -24.5 126.375 -22.5 126.375 C-22.396875 125.818125 -22.29375 125.26125 -22.1875 124.6875 C-21.35821592 121.8980899 -20.15700944 119.7610936 -18.5 117.375 C-17.84 117.375 -17.18 117.375 -16.5 117.375 C-16.4175 116.59125 -16.335 115.8075 -16.25 115 C-15.4484209 111.12570103 -14.12445541 107.83811742 -12.53515625 104.23046875 C-6.60842486 87.88163613 -8.15576532 69.24443707 -15.16015625 53.5390625 C-24.22777952 34.55964685 -39.57209432 23.54899436 -58.5 15.375 C-57.5 12.375 -57.5 12.375 -54.6484375 10.91015625 C-53.39637022 10.40479666 -52.13799056 9.9149051 -50.875 9.4375 C-50.2049292 9.17807617 -49.5348584 8.91865234 -48.84448242 8.65136719 C-32.92154551 2.64888671 -17.00327232 -0.05209475 0 0 Z " fill="#87A431" transform="translate(239.5,168.625)"/>
<path d="M0 0 C1.01441246 21.75351174 -4.26079165 42.16173773 -13 62 C-16.65766864 61.42290117 -18.28050214 60.01685488 -20.875 57.4375 C-32.72549662 46.5794095 -47.98672472 40.36084529 -63.65234375 37.67578125 C-67 37 -67 37 -69.60546875 35.9375 C-82.69808623 30.811516 -100.88106095 37.95273859 -113.20654297 43.17529297 C-116.71518332 44.78871348 -119.96302228 46.77216727 -123.1796875 48.8984375 C-125 50 -125 50 -127 50 C-127 50.66 -127 51.32 -127 52 C-130 54 -130 54 -133 54 C-133.85410396 33.75457277 -129.7283409 17.4883846 -116 2 C-115.48050781 1.38640625 -114.96101563 0.7728125 -114.42578125 0.140625 C-105.46009974 -9.70581615 -93.48888852 -15.18347745 -81 -19 C-80.01 -19.33 -79.02 -19.66 -78 -20 C-50.06387266 -23.71381309 -23.64510897 -14.14933382 0 0 Z " fill="#1B99C7" transform="translate(251,61)"/>
<path d="M0 0 C33.85013693 -0.82007413 66.68263091 2.70010687 94 25 C91.28566368 52.17907812 82.26353718 78.53043739 65 100 C64.59555664 100.50982422 64.19111328 101.01964844 63.77441406 101.54492188 C44.66740107 125.4969788 18.70565041 143.04829688 -11 151 C-11.75313477 151.20882812 -12.50626953 151.41765625 -13.28222656 151.6328125 C-34.85534292 157.37353231 -61.35368185 157.62938305 -83 152 C-83 151.67 -83 151.34 -83 151 C-82.24082275 151.02094727 -81.48164551 151.04189453 -80.69946289 151.06347656 C-56.89079961 151.63270843 -35.86584911 150.82894447 -17.375 134.25 C-16.64023438 133.53328125 -15.90546875 132.8165625 -15.1484375 132.078125 C-12.87958289 129.88352382 -10.48893958 127.93875294 -8 126 C-12.91475888 137.30394541 -25.24716527 144.15902039 -36 149 C-40.24244789 150.65221222 -44.57895731 151.91745016 -49 153 C-46.20815895 152.8570626 -43.41656255 152.71070498 -40.625 152.5625 C-39.85027344 152.52318359 -39.07554687 152.48386719 -38.27734375 152.44335938 C-35.8501695 152.31297398 -33.42536731 152.16041233 -31 152 C-29.79017456 151.92978638 -29.79017456 151.92978638 -28.5559082 151.8581543 C-22.01296648 151.36391961 -16.14856362 149.75208352 -9.9375 147.6875 C-9.00873047 147.39166016 -8.07996094 147.09582031 -7.12304688 146.79101562 C-1.23130493 144.87671631 4.39458904 142.63143085 10 140 C10.97731079 139.5522522 10.97731079 139.5522522 11.97436523 139.09545898 C45.23401572 123.71186219 70.8161746 95.82109838 83.53515625 61.4362793 C87.79163902 49.46492151 90.41359599 37.61657777 92 25 C91.26265625 24.72414062 90.5253125 24.44828125 89.765625 24.1640625 C87.20495506 23.0862664 85.07939336 21.87486119 82.75 20.375 C61.12082567 7.30803944 38.35835867 2.00989291 13.1875 1.375 C11.91068359 1.33632812 10.63386719 1.29765625 9.31835938 1.2578125 C6.21237223 1.16474921 3.10637314 1.0789185 0 1 C0 0.67 0 0.34 0 0 Z " fill="#1E240A" transform="translate(224,169)"/>
<path d="M0 0 C-9.35045536 5.26101271 -21.75101846 4.18063209 -32.125 4.1875 C-33.32326416 4.18830566 -34.52152832 4.18911133 -35.75610352 4.18994141 C-45.22235547 4.12946276 -45.22235547 4.12946276 -49 3 C-44.63902591 22.19803121 -38.03259816 37.72915739 -24 52 C-23.31292969 52.69996094 -22.62585938 53.39992187 -21.91796875 54.12109375 C-10.24226704 65.23358906 6.0656346 72.86896025 22 75 C22.97195312 75.1340625 23.94390625 75.268125 24.9453125 75.40625 C46.59931751 77.74722351 68.26257266 71.27153477 85.4375 58 C86.63500511 57.01200315 87.82713172 56.01712155 89 55 C89 55.99 89 56.98 89 58 C87.11214912 59.5985834 85.30085808 60.95265124 83.25 62.3125 C82.36308472 62.90744263 82.36308472 62.90744263 81.45825195 63.5144043 C61.15409068 76.88160403 38.71132014 80.51644193 15 76 C-1.42368871 72.22443938 -15.41279921 64.21353597 -27 52 C-27.51820312 51.53722656 -28.03640625 51.07445312 -28.5703125 50.59765625 C-40.28864827 39.85146941 -48.13092556 22.47790157 -51 7 C-51.01750249 5.33342524 -51.01973888 3.66654978 -51 2 C-49.6402002 2.01571045 -49.6402002 2.01571045 -48.25292969 2.03173828 C-44.83102788 2.06619281 -41.40931522 2.09107754 -37.98730469 2.10986328 C-36.51722267 2.11980927 -35.04715984 2.13337091 -33.57714844 2.15087891 C-25.38989509 2.24581977 -17.52061315 2.0626176 -9.45117188 0.4453125 C-6.23425772 -0.13911493 -3.2581054 -0.1480957 0 0 Z " fill="#112726" transform="translate(141,189)"/>
<path d="M0 0 C1.19617934 3.79070917 0.49686358 6.37498271 -0.453125 10.20703125 C-1.53541645 15.73444832 -1.69646927 21.38468152 -2 27 C-0.02 26.34 1.96 25.68 4 25 C4 24.34 4 23.68 4 23 C20.27046974 13.03495546 39.42826354 4.6341857 59 7 C61.33203125 8.01953125 61.33203125 8.01953125 63 9 C61.94683594 9.03738281 60.89367187 9.07476562 59.80859375 9.11328125 C37.73004309 10.0468679 18.63891016 15.41996659 1.12109375 29.27734375 C-1.36065952 31.85659502 -1.36065952 31.85659502 -0.859375 35.27734375 C5.61439899 56.63623893 16.19728639 73.33617199 36.046875 84.45703125 C39.95460513 86.49876855 43.91621042 88.33967141 48 90 C47 93 47 93 44.78515625 94.203125 C43.88667969 94.54859375 42.98820312 94.8940625 42.0625 95.25 C41.16660156 95.60578125 40.27070313 95.9615625 39.34765625 96.328125 C37 97 37 97 35 96 C36.26691507 95.32591692 37.53870749 94.66099503 38.8125 94 C39.52019531 93.62875 40.22789062 93.2575 40.95703125 92.875 C43 92 43 92 46 92 C46 91.34 46 90.68 46 90 C45.21625 89.938125 44.4325 89.87625 43.625 89.8125 C29.18031629 86.57489848 16.19944785 74.70403115 8.25 62.625 C-2.32539682 44.99933864 -6.53270463 24.91417958 -1.5 4.6875 C-1.02678263 3.11668124 -0.53895471 1.54949478 0 0 Z " fill="#134559" transform="translate(120,88)"/>
<path d="M0 0 C0 4.17340025 -1.62306482 5.15498751 -4.5 8.125 C-14.33876424 17.92289201 -26.61405413 23.72227695 -40 27 C-37.20815895 26.8570626 -34.41656255 26.71070498 -31.625 26.5625 C-30.46291016 26.50352539 -30.46291016 26.50352539 -29.27734375 26.44335938 C-26.8501695 26.31297398 -24.42536731 26.16041233 -22 26 C-21.19344971 25.95319092 -20.38689941 25.90638184 -19.5559082 25.8581543 C-13.01296648 25.36391961 -7.14856362 23.75208352 -0.9375 21.6875 C0.4556543 21.24374023 0.4556543 21.24374023 1.87695312 20.79101562 C10.66740293 17.93489053 18.78810975 14.20227633 26.93359375 9.85546875 C27.61550781 9.57316406 28.29742187 9.29085938 29 9 C29.99 9.495 29.99 9.495 31 10 C22.33171974 19.31963491 6.01457692 23.04714375 -6 26 C-7.20527344 26.3196875 -8.41054687 26.639375 -9.65234375 26.96875 C-29.60831818 31.41714059 -54.24126829 31.13849369 -74 26 C-74 25.67 -74 25.34 -74 25 C-73.24082275 25.02094727 -72.48164551 25.04189453 -71.69946289 25.06347656 C-47.80561669 25.63474503 -26.92262355 24.76512426 -8.3125 8.25 C-6.85675787 6.85208528 -5.41763913 5.43654098 -4 4 C-3.25105469 3.25234375 -2.50210938 2.5046875 -1.73046875 1.734375 C-1.15941406 1.16203125 -0.58835937 0.5896875 0 0 Z " fill="#2E4019" transform="translate(215,295)"/>
<path d="M0 0 C0.33 0 0.66 0 1 0 C0.67 6.6 0.34 13.2 0 20 C12.66664016 28.20452829 25.71164579 34.12621816 40 39 C35.9643112 40.66889387 32.77570496 39.18406946 28.9375 37.6875 C28.25155762 37.42694824 27.56561523 37.16639648 26.85888672 36.89794922 C20.0171197 34.19398985 13.56595468 30.78470618 7.12084961 27.25268555 C5.96661499 26.62100464 5.96661499 26.62100464 4.7890625 25.9765625 C4.10537598 25.59580566 3.42168945 25.21504883 2.71728516 24.82275391 C1.01675433 23.85597587 1.01675433 23.85597587 -1 24 C-1.44162892 34.97529661 -0.50863217 45.51161906 0.93286133 56.39233398 C2.20578488 66.04401402 2.20578488 66.04401402 2 71 C1.67 71 1.34 71 1 71 C0.51707679 68.66738977 0.03860141 66.33400412 -0.4375 64 C-0.57220703 63.35160156 -0.70691406 62.70320313 -0.84570312 62.03515625 C-2.77800157 52.51505172 -3.22577695 43.33481053 -3.25 33.625 C-3.25233643 32.9636908 -3.25467285 32.30238159 -3.25708008 31.62103271 C-3.27146279 20.82386922 -2.39734168 10.53117951 0 0 Z " fill="#306255" transform="translate(35,148)"/>
<path d="M0 0 C0 4.17340025 -1.62306482 5.15498751 -4.5 8.125 C-13.72874639 17.31540829 -25.10820521 23.02745071 -37.62109375 26.34375 C-39.93638647 26.77185129 -39.93638647 26.77185129 -41 28 C-44.63841372 28.25580245 -48.29118419 28.1852478 -51.9375 28.1875 C-52.94619141 28.19974609 -53.95488281 28.21199219 -54.99414062 28.22460938 C-61.56689173 28.23730625 -67.61409981 27.56044771 -74 26 C-74 25.67 -74 25.34 -74 25 C-73.24082275 25.02094727 -72.48164551 25.04189453 -71.69946289 25.06347656 C-47.80561669 25.63474503 -26.92262355 24.76512426 -8.3125 8.25 C-6.85675787 6.85208528 -5.41763913 5.43654098 -4 4 C-3.25105469 3.25234375 -2.50210938 2.5046875 -1.73046875 1.734375 C-1.15941406 1.16203125 -0.58835937 0.5896875 0 0 Z " fill="#38634F" transform="translate(215,295)"/>
<path d="M0 0 C0.99 0.495 0.99 0.495 2 1 C2.63120007 3.21069599 3.17828273 5.44556154 3.6875 7.6875 C7.98962464 25.0187381 17.8590952 40.06296464 32.921875 49.91015625 C38.75558589 53.39705705 44.7041405 56.44031975 51 59 C50 62 50 62 47.78515625 63.203125 C46.88667969 63.54859375 45.98820312 63.8940625 45.0625 64.25 C44.16660156 64.60578125 43.27070313 64.9615625 42.34765625 65.328125 C40 66 40 66 38 65 C39.26691507 64.32591692 40.53870749 63.66099503 41.8125 63 C42.52019531 62.62875 43.22789062 62.2575 43.95703125 61.875 C46 61 46 61 49 61 C49 60.34 49 59.68 49 59 C48.21625 58.938125 47.4325 58.87625 46.625 58.8125 C32.18031629 55.57489848 19.19944785 43.70403115 11.25 31.625 C5.60129238 22.2104873 0 11.26698568 0 0 Z " fill="#1B1F07" transform="translate(117,119)"/>
<path d="M0 0 C0 3 0 3 -1.22265625 4.47265625 C-8.0089953 10.33686006 -15.48400971 15.13613649 -23 20 C-23.66 19.67 -24.32 19.34 -25 19 C-22.46791424 16.210414 -19.59770367 14.3437652 -16.4375 12.3125 C-10.67253027 8.52770257 -5.29886418 4.40790472 0 0 Z " fill="#243012" transform="translate(270,286)"/>
<path d="M0 0 C0.66 0.33 1.32 0.66 2 1 C-0.13274079 3.34601486 -2.02537789 4.86264449 -5 6 C-7.75 6.125 -7.75 6.125 -10 6 C-8.0331974 4.0331974 -6.4555341 3.0628363 -4 1.8125 C-3.29875 1.44769531 -2.5975 1.08289063 -1.875 0.70703125 C-1.25625 0.47371094 -0.6375 0.24039062 0 0 Z " fill="#33461C" transform="translate(244,304)"/>
<path d="M0 0 C0.33 0.99 0.66 1.98 1 3 C-1.64 5.31 -4.28 7.62 -7 10 C-7 7 -7 7 -5.46875 5.17578125 C-4.8190625 4.56089844 -4.169375 3.94601563 -3.5 3.3125 C-2.8503125 2.68988281 -2.200625 2.06726563 -1.53125 1.42578125 C-0.77328125 0.72001953 -0.77328125 0.72001953 0 0 Z " fill="#3C4915" transform="translate(73,80)"/>
</svg>
